<svg width="27" height="23" xmlns="http://www.w3.org/2000/svg"><path d="M25.429 5.93c-.688-.688-1.51-1.032-2.47-1.032H12.46v-.5c0-.959-.345-1.782-1.032-2.469C10.741 1.242 9.918.898 8.96.898h-5c-.959 0-1.782.344-2.47 1.031-.687.687-1.03 1.51-1.03 2.47v15c0 .957.343 1.78 1.03 2.468.688.687 1.511 1.031 2.47 1.031h19c.958 0 1.781-.344 2.469-1.031.687-.688 1.03-1.511 1.03-2.469v-11c0-.958-.343-1.781-1.03-2.469zm-.97 13.468c0 .417-.145.772-.437 1.063a1.447 1.447 0 0 1-1.063.437H3.96a1.45 1.45 0 0 1-1.063-.437 1.447 1.447 0 0 1-.437-1.063v-15c0-.417.146-.77.437-1.063a1.448 1.448 0 0 1 1.063-.437h5c.416 0 .77.146 1.063.437.29.293.437.646.437 1.063v1c0 .417.146.771.437 1.062.292.292.646.438 1.063.438h11c.417 0 .77.146 1.062.438.292.291.437.645.437 1.062v11z" fill-rule="evenodd"/></svg>