<?xml version="1.0" encoding="UTF-8"?>
<svg width="27px" height="23px" viewBox="0 0 27 23" version="1.1" xmlns="http://www.w3.org/2000/svg" xmlns:xlink="http://www.w3.org/1999/xlink">
    <!-- Generator: sketchtool 52.5 (67469) - http://www.bohemiancoding.com/sketch -->
    <title>CAF4E985-5D54-49B5-A7C2-6EA302280D15@1x</title>
    <desc>Created with sketchtool.</desc>
    <g id="Fase-1---profil" stroke="none" stroke-width="1" fill="none" fill-rule="evenodd">
        <g id="v8.0" transform="translate(-527.000000, -64.000000)" fill="#000000">
            <g id="PROJECTS" transform="translate(505.355966, 64.072687)">
                <path d="M47.0726509,5.85658809 C46.3853555,5.16929267 45.5621352,4.82552509 44.6032298,4.82552509 L34.1041749,4.82552509 L34.1041749,4.32569567 C34.1041749,3.36679029 33.7594484,2.54357003 33.072153,1.8562746 C32.3848576,1.16897918 31.5616373,0.825211602 30.6036908,0.825211602 L25.6041979,0.825211602 C24.6452926,0.825211602 23.8220723,1.16897918 23.1347769,1.8562746 C22.4474815,2.54357003 22.1037139,3.36679029 22.1037139,4.32569567 L22.1037139,19.325373 C22.1037139,20.2833194 22.4474815,21.1065397 23.1347769,21.7938351 C23.8220723,22.4811305 24.6452926,22.8256173 25.6041979,22.8256173 L44.6032298,22.8256173 C45.5621352,22.8256173 46.3853555,22.4811305 47.0726509,21.7938351 C47.7599463,21.1065397 48.1037139,20.2833194 48.1037139,19.325373 L48.1037139,8.32505025 C48.1037139,7.36710378 47.7599463,6.54388352 47.0726509,5.85658809 Z M46.1034373,19.325373 C46.1034373,19.7420173 45.9584028,20.0970521 45.6661764,20.3880798 C45.3749089,20.6793473 45.0210728,20.8255804 44.6032298,20.8255804 L25.6041979,20.8255804 C25.1873138,20.8255804 24.8334778,20.6793473 24.5412513,20.3880798 C24.2499838,20.0970521 24.1039905,19.7420173 24.1039905,19.325373 L24.1039905,4.32569567 C24.1039905,3.90881155 24.2499838,3.55497547 24.5412513,3.26274906 C24.8325188,2.97148155 25.1873138,2.82548821 25.6041979,2.82548821 L30.6036908,2.82548821 C31.0203352,2.82548821 31.374411,2.97148155 31.6666374,3.26274906 C31.9576652,3.55497547 32.1038983,3.90881155 32.1038983,4.32569567 L32.1038983,5.32559424 C32.1038983,5.74247835 32.2498916,6.09631444 32.5411591,6.38758194 C32.8333855,6.67980835 33.1872216,6.8258017 33.6041057,6.8258017 L44.6032298,6.8258017 C45.0210728,6.8258017 45.3749089,6.97107586 45.6661764,7.26306255 C45.9584028,7.55433005 46.1034373,7.90840586 46.1034373,8.32505025 L46.1034373,19.325373 Z" id="folder-white-shape"></path>
            </g>
        </g>
    </g>
</svg>